<svg width="205" height="56" viewBox="0 0 205 56" fill="none" xmlns="http://www.w3.org/2000/svg">
<path d="M160.789 18.7598C153.882 18.7598 149.479 22.2799 149.479 29.6276C149.479 37.3728 154.452 40.4979 160.789 40.4979C167.127 40.4979 172.01 37.3728 172.01 29.6276C172.01 22.3225 167.652 18.7598 160.789 18.7598ZM160.789 36.5354C156.829 36.5354 154.144 34.8203 154.144 29.6276C154.144 24.435 156.829 22.7199 160.789 22.7199C164.75 22.7199 167.39 24.3924 167.39 29.6276C167.39 34.8628 164.795 36.5354 160.789 36.5354Z" fill="#46D519"/>
<path d="M125.058 31.695C125.21 26.649 118.248 21.9082 104.368 17.6004L103.675 17.3851L104.34 17.0941C108.854 15.1235 116.544 13.3138 119.239 15.0336C120.235 15.67 119.719 17.4916 119.054 19.0032L123.549 21.0684C125.773 16.0485 124.477 13.2215 122.981 11.7288C118.118 6.87682 106.164 10.8464 101.97 12.7862C98.1206 14.5652 96.4765 16.2661 96.6397 18.3053C96.6942 18.9843 97.0774 20.6355 99.462 21.3074C116.429 26.0836 120.15 30.4081 120.117 31.5483C120.117 31.5767 119.693 33.4054 112.854 34.8981C109.064 35.7237 107.697 35.3523 107.283 35.1512L107.157 35.0897L107.134 34.9525C106.964 33.9424 108.234 31.3283 109.537 29.5375L105.601 26.5379C104.177 28.454 100.583 33.9542 102.994 37.7393C104.096 39.4733 106.138 40.351 109.057 40.351C111.054 40.351 112.979 39.9299 113.907 39.7264C121.198 38.1367 124.95 35.4327 125.061 31.6926L125.058 31.695Z" fill="#46D519"/>
<path d="M127.223 40.2234V9.41064H131.886V24.0541C133.542 21.0899 136.636 18.9537 139.165 18.9112C145.486 18.6486 147.707 22.9635 147.707 28.1089V40.2258H143.045V28.5441C143.045 25.0571 141.476 22.921 137.944 22.921C133.934 22.921 131.886 25.4498 131.886 29.3272V40.2234H127.223Z" fill="#46D519"/>
<path d="M193.679 28.3147C193.769 30.8342 193.388 33.3891 192.612 35.4235C191.335 38.771 189.083 40.7747 186.265 41.0657C185.981 41.094 185.712 41.1082 185.456 41.1082C183.358 41.1082 182.234 40.1809 181.65 39.3529C180.919 38.3144 180.346 36.4526 181.773 33.4577C182.906 31.0778 185.395 28.0734 188.714 25.8237C188.435 24.6787 188.016 23.7372 187.503 23.1741C187.081 22.7128 186.724 22.6087 186.138 22.772C182.698 23.7348 179.637 33.5854 178.617 40.0508V49.0332H173.99V18.7835H178.617V24.4043C180.2 21.4543 182.256 19.0531 184.891 18.3151C187.174 17.6763 189.315 18.2938 190.921 20.0538C191.791 21.0072 192.444 22.2444 192.896 23.6331C194.372 23.0771 195.939 22.7057 197.568 22.5969L197.878 27.2123C196.414 27.3093 194.997 27.7186 193.679 28.3171V28.3147ZM188.875 31.6101C188.293 32.166 187.782 32.7291 187.351 33.2661C186.133 34.7943 185.7 35.9014 185.57 36.4763C185.636 36.4739 185.709 36.4692 185.792 36.4597C187.126 36.3225 187.928 34.7186 188.29 33.7723C188.553 33.0839 188.745 32.3529 188.875 31.6077V31.6101Z" fill="#46D519"/>
<path d="M20.3495 13.075C19.7652 13.075 19.2731 13.4748 19.1808 14.0284L17.1464 26.2991C17.0896 26.6326 17.1866 26.9591 17.416 27.2146C17.6455 27.4701 17.9649 27.612 18.3174 27.612H30.6165C31.2008 27.612 31.6952 27.2099 31.7875 26.6539L33.8196 14.3856C33.8763 14.052 33.7793 13.7279 33.5499 13.4724C33.3204 13.217 33.0034 13.075 32.6509 13.075H20.3495ZM30.6165 29.6512H18.3174C17.3451 29.6512 16.4272 29.2443 15.7956 28.5394C15.1616 27.832 14.8872 26.8976 15.0386 25.9797L17.073 13.709C17.3285 12.1595 18.7077 11.0334 20.3495 11.0334H32.6509C33.6208 11.0334 34.5411 11.4403 35.1727 12.1453C35.8044 12.8526 36.0788 13.7847 35.9274 14.7026L33.8953 26.9733C33.635 28.5252 32.2559 29.6512 30.6188 29.6512" fill="white"/>
<path d="M55.3944 27.5599H41.6121C41.2596 27.5599 40.9402 27.418 40.7107 27.1625C40.4813 26.907 40.3866 26.5829 40.4411 26.2494L42.4661 14.0283C42.5583 13.4748 43.048 13.075 43.6347 13.075H52.6361L52.9743 11.0358H43.6347C41.9929 11.0358 40.6161 12.1618 40.3583 13.7113L38.3332 25.9324C38.1818 26.8502 38.4563 27.7823 39.0879 28.4873C39.7195 29.1946 40.6398 29.6015 41.6121 29.6015H55.0561L55.3944 27.5623V27.5599Z" fill="white"/>
<path d="M9.24035 33.9284L13.7091 6.96692H11.5492L7.10179 33.7936C7.01189 34.3377 7.17275 34.8912 7.54653 35.3099C7.9203 35.7287 8.46441 35.97 9.03926 35.97H23.1221L23.4604 33.9308H9.23798L9.24035 33.9284Z" fill="white"/>
<path d="M56.5275 17.9577H58.6874L59.856 11.0334H52.9743L52.636 13.075H57.3531L56.5275 17.9577Z" fill="#46D519"/>
<path d="M56.5276 17.9578L53.1778 37.8128C53.0832 38.364 52.5911 38.7638 52.0068 38.7638H37.1078L36.7695 40.803H52.0068C53.6414 40.803 55.0183 39.6817 55.2809 38.1369L58.6874 17.9554H56.5276V17.9578Z" fill="white"/>
<path d="M90.8675 22.5211L90.4914 22.3082V22.4029H83.0064V30.4958H77.3241V22.4029H69.8391V16.7205H77.3241V14.802L70.977 11.1825C68.0057 9.4887 64.3153 11.6344 64.3153 15.0527V37.73C64.3153 41.1484 68.0081 43.294 70.977 41.6002L90.8675 30.2616C93.8648 28.5512 93.8648 24.2291 90.8675 22.5211Z" fill="#46D519"/>
<path d="M89.7604 17.4491H82.2754V9.3562H78.0551V17.4491H70.5701V21.6718H78.0551V29.7672H82.2754V21.6718H89.7604V17.4491Z" fill="white"/>
</svg>
